<?xml version="1.0" standalone="no"?>
<!DOCTYPE svg PUBLIC "-//W3C//DTD SVG 20010904//EN"
 "http://www.w3.org/TR/2001/REC-SVG-20010904/DTD/svg10.dtd">
<svg version="1.0" xmlns="http://www.w3.org/2000/svg"
 width="156.000000pt" height="160.000000pt" viewBox="0 0 156.000000 160.000000"
 preserveAspectRatio="xMidYMid meet">
<metadata>
Created by potrace 1.16, written by Peter Selinger 2001-2019
</metadata>
<g transform="translate(0.000000,160.000000) scale(0.100000,-0.100000)"
fill="#000000" stroke="none">
<path d="M477 1243 c-13 -21 -79 -135 -147 -253 l-123 -215 30 -55 c16 -30 80
-144 143 -252 l113 -197 280 -3 c153 -2 284 0 290 4 6 4 -18 56 -64 137 l-74
131 -132 0 c-127 0 -133 1 -146 23 -81 131 -118 202 -114 217 2 9 31 63 63
118 l59 101 135 3 134 3 73 125 c40 69 72 131 73 138 0 9 -63 12 -285 12
l-285 0 -23 -37z m433 -70 c0 -5 -9 -23 -20 -40 l-20 -33 -135 0 -134 0 -97
-162 -96 -163 23 -42 c13 -22 56 -96 94 -162 l70 -121 130 0 c72 0 135 -4 140
-8 14 -10 45 -59 45 -72 0 -16 -345 -14 -358 3 -5 6 -60 99 -121 206 l-111
194 102 176 c56 97 108 188 117 203 l16 28 178 0 c97 0 177 -3 177 -7z"/>
<path d="M1100 1137 l-23 -43 92 -161 93 -161 -91 -157 c-50 -86 -91 -161 -91
-167 0 -15 42 -88 51 -88 5 0 120 193 228 383 18 32 18 33 -95 223 -35 60 -76
133 -91 161 -16 29 -33 53 -39 53 -6 0 -22 -19 -34 -43z"/>
<path d="M1002 970 c-12 -22 -22 -45 -22 -52 0 -7 16 -39 35 -71 19 -32 35
-65 35 -73 0 -9 -16 -43 -35 -75 -19 -33 -35 -65 -35 -70 0 -20 42 -90 52 -87
10 4 137 215 138 230 0 10 -121 216 -134 227 -8 7 -18 -2 -34 -29z"/>
</g>
</svg>
